<svg width="86" height="45" viewBox="0 0 86 45" fill="none" xmlns="http://www.w3.org/2000/svg">
<line x1="2" y1="7.13303" x2="37.5764" y2="7.13303" stroke="#595959" stroke-width="4" stroke-linecap="round"/>
<line x1="33.9655" y1="25.399" x2="80.197" y2="25.399" stroke="#595959" stroke-width="4" stroke-linecap="round"/>
<line x1="46.1428" y1="34.532" x2="49.7537" y2="34.532" stroke="#595959" stroke-width="4" stroke-linecap="round"/>
<line x1="64.4089" y1="7.13303" x2="68.0198" y2="7.13303" stroke="#595959" stroke-width="4" stroke-linecap="round"/>
<line x1="72.0197" y1="14.7438" x2="75.6305" y2="14.7438" stroke="#595959" stroke-width="4" stroke-linecap="round"/>
<line x1="79.6306" y1="7.13303" x2="83.2415" y2="7.13303" stroke="#595959" stroke-width="4" stroke-linecap="round"/>
<line x1="59.8424" y1="34.532" x2="63.4532" y2="34.532" stroke="#595959" stroke-width="4" stroke-linecap="round"/>
<line x1="73.5419" y1="34.532" x2="77.1527" y2="34.532" stroke="#595959" stroke-width="4" stroke-linecap="round"/>
<line x1="38.5321" y1="42.1429" x2="42.1429" y2="42.1429" stroke="#595959" stroke-width="4" stroke-linecap="round"/>
<line x1="52.2316" y1="42.1429" x2="55.8424" y2="42.1429" stroke="#595959" stroke-width="4" stroke-linecap="round"/>
<line x1="65.931" y1="42.1429" x2="69.5419" y2="42.1429" stroke="#595959" stroke-width="4" stroke-linecap="round"/>
<line x1="12.6552" y1="16.266" x2="49.7537" y2="16.266" stroke="#595959" stroke-width="4" stroke-linecap="round"/>
<path d="M49.4704 2.00001C51.6134 2.00001 53.6396 2.78732 55.11 4.14462C56.575 5.49695 57.3645 7.29523 57.3645 9.13302C57.3645 10.9708 56.575 12.7691 55.11 14.1214C53.6396 15.4787 51.6134 16.266 49.4704 16.266" stroke="#595959" stroke-width="4" stroke-linecap="round"/>
</svg>
