<svg width="102" height="31" viewBox="0 0 102 31" fill="none" xmlns="http://www.w3.org/2000/svg">
<path d="M48.2739 29.3558H65.1701C74.9975 29.3558 77.2388 13.6055 59.4375 13.6055C61.9518 9.24123 61.9518 2 49.0785 2" stroke="white" stroke-width="3"/>
<path d="M49.8831 29.3558H35.4165C27.0023 29.3558 25.0833 13.6377 40.3248 13.6377C38.1721 9.28238 37.8144 2 49.0785 2" stroke="white" stroke-width="3"/>
<path d="M23.5122 29.3558H40.4085M33.5 15C32 12 30.5 7 21.5 7" stroke="white" stroke-width="3"/>
<path d="M25.1214 29.3558H9.56731C1.15309 29.3558 -3.04754 18.1428 12.194 18.1428C10.0413 13.7875 10.684 7 21.9482 7" stroke="white" stroke-width="3"/>
<path d="M73.1862 29.3558H90.0824C99.9097 29.3558 106.5 17 88.392 13.9158C91 10.5 88.392 6.5 76 6.5" stroke="white" stroke-width="3"/>
<path d="M74.7954 29.3557H60.3288M66.1065 15C63.9537 10.6447 65.2359 6.5 76.5 6.5" stroke="white" stroke-width="3"/>
</svg>
