<svg width="61" height="46" viewBox="0 0 61 46" fill="none" xmlns="http://www.w3.org/2000/svg">
<line x1="14.646" y1="37.5093" x2="11.5094" y2="43.7826" stroke="#009EF8" stroke-width="2.25" stroke-linecap="round"/>
<line x1="6.646" y1="37.5093" x2="3.50937" y2="43.7826" stroke="#009EF8" stroke-width="2.25" stroke-linecap="round"/>
<line x1="41.646" y1="37.5093" x2="38.5094" y2="43.7826" stroke="#009EF8" stroke-width="2.25" stroke-linecap="round"/>
<line x1="23.646" y1="37.5093" x2="20.5094" y2="43.7826" stroke="#009EF8" stroke-width="2.25" stroke-linecap="round"/>
<line x1="32.646" y1="37.5093" x2="29.5094" y2="43.7826" stroke="#009EF8" stroke-width="2.25" stroke-linecap="round"/>
<path d="M20.7186 15.6596C8.17734 8.72347 0.563048 21.7288 2.80253 29.5319C1.30954 32.133 1.96849 33 4.20799 33H44.6066C49.9814 33 49.8321 31.266 48.3391 29.5319C54.3111 19.1277 42.6159 15.6596 37.8881 15.6596C30.7217 1.78731 23.4557 9.87949 20.7186 15.6596Z" stroke="white" stroke-width="3"/>
<mask id="path-7-inside-1" fill="white">
<path d="M51.5662 22.7275C52.8013 21.7381 53.7942 20.4798 54.4693 19.0484C55.1444 17.6171 55.4838 16.0506 55.4616 14.4682C55.4395 12.8858 55.0564 11.3294 54.3415 9.9175C53.6267 8.50562 52.599 7.27557 51.3367 6.3211C50.0744 5.36664 48.6108 4.71294 47.0576 4.40985C45.5043 4.10675 43.9024 4.16225 42.3739 4.57211C40.8453 4.98198 39.4305 5.73539 38.2373 6.77493C37.0441 7.81447 36.104 9.11269 35.4885 10.5707L37.1084 11.2544C37.6198 10.043 38.4009 8.96439 39.3923 8.10066C40.3837 7.23694 41.5592 6.61095 42.8293 6.2704C44.0993 5.92986 45.4303 5.88375 46.7208 6.13558C48.0114 6.38742 49.2274 6.93055 50.2762 7.72359C51.325 8.51663 52.1789 9.53865 52.7729 10.7117C53.3668 11.8848 53.6851 13.178 53.7035 14.4928C53.7219 15.8075 53.4399 17.1091 52.879 18.2984C52.3181 19.4876 51.4931 20.5331 50.4669 21.3552L51.5662 22.7275Z"/>
</mask>
<path d="M51.5662 22.7275C52.8013 21.7381 53.7942 20.4798 54.4693 19.0484C55.1444 17.6171 55.4838 16.0506 55.4616 14.4682C55.4395 12.8858 55.0564 11.3294 54.3415 9.9175C53.6267 8.50562 52.599 7.27557 51.3367 6.3211C50.0744 5.36664 48.6108 4.71294 47.0576 4.40985C45.5043 4.10675 43.9024 4.16225 42.3739 4.57211C40.8453 4.98198 39.4305 5.73539 38.2373 6.77493C37.0441 7.81447 36.104 9.11269 35.4885 10.5707L37.1084 11.2544C37.6198 10.043 38.4009 8.96439 39.3923 8.10066C40.3837 7.23694 41.5592 6.61095 42.8293 6.2704C44.0993 5.92986 45.4303 5.88375 46.7208 6.13558C48.0114 6.38742 49.2274 6.93055 50.2762 7.72359C51.325 8.51663 52.1789 9.53865 52.7729 10.7117C53.3668 11.8848 53.6851 13.178 53.7035 14.4928C53.7219 15.8075 53.4399 17.1091 52.879 18.2984C52.3181 19.4876 51.4931 20.5331 50.4669 21.3552L51.5662 22.7275Z" stroke="#E9EE00" stroke-width="2" mask="url(#path-7-inside-1)"/>
<line x1="39.8859" y1="4.65473" x2="37.6972" y2="1.37171" stroke="#E9EE00"/>
<line x1="44.5" y1="3" x2="44.5" stroke="#E9EE00"/>
<line x1="49.6766" y1="4.21927" x2="50.7709" y2="0.936247" stroke="#E9EE00"/>
<line x1="54.1748" y1="7.30682" x2="56.3634" y2="5.11814" stroke="#E9EE00"/>
<line x1="56.5589" y1="11.5634" x2="59.8419" y2="10.469" stroke="#E9EE00"/>
<line x1="56.8751" y1="15.9408" x2="60.1581" y2="17.0351" stroke="#E9EE00"/>
<line x1="54.8057" y1="20.3764" x2="58.0887" y2="22.5651" stroke="#E9EE00"/>
</svg>
