<svg width="47" height="41" viewBox="0 0 47 41" fill="none" xmlns="http://www.w3.org/2000/svg">
<path d="M23.8209 6.2393C22.628 3.26386 25.6101 -0.306659 30.9779 1.4786C33.5082 2.32018 34.1836 4.45403 33.9599 6.2393C33.7363 8.02457 31.6936 11 27.3994 11C23.1052 11 11.8439 11 2.5 11" stroke="white" stroke-width="2" stroke-linecap="round"/>
<circle cx="28" cy="6" r="1" fill="white"/>
<circle cx="15" cy="6" r="1" fill="white"/>
<circle cx="9" cy="7" r="1" fill="white"/>
<path d="M35.3209 16.2393C34.128 13.2639 37.1101 9.69334 42.4779 11.4786C45.0082 12.3202 45.6836 14.454 45.4599 16.2393C45.2363 18.0246 43.1936 21 38.8994 21C34.6052 21 23.3439 21 14 21" stroke="white" stroke-width="2" stroke-linecap="round"/>
<circle cx="39.5" cy="16" r="1" fill="white"/>
<circle cx="27" cy="16" r="1" fill="white"/>
<circle cx="20.5" cy="17" r="1" fill="white"/>
<circle cx="6" cy="25" r="1" fill="white"/>
<circle cx="33" cy="27" r="1" fill="white"/>
<path d="M22.6593 34.2368C21.4475 37.5098 24.4769 41.4373 29.9299 39.4735C32.5004 38.5478 33.1865 36.2006 32.9593 34.2368C32.7321 32.273 30.657 29 26.2946 29C21.9322 29 10.4922 29 1 29" stroke="white" stroke-width="2" stroke-linecap="round"/>
<circle cx="17" cy="34" r="1" fill="white"/>
<circle cx="10" cy="36" r="1" fill="white"/>
<circle cx="38" cy="30" r="1" fill="white"/>
</svg>
