<svg width="65" height="47" viewBox="0 0 65 47" fill="none" xmlns="http://www.w3.org/2000/svg">
<path d="M30.395 35.1429H50.8655C62.7719 35.1429 65.4874 16.0606 43.9202 16.0606C46.9664 10.7731 46.9664 2 31.3697 2" stroke="#848484" stroke-width="3"/>
<path d="M32.3445 35.1428H14.8176C4.62333 35.1428 2.2983 16.0996 20.7642 16.0996C18.156 10.823 17.7227 2 31.3698 2" stroke="#848484" stroke-width="3"/>
<line x1="1.5" y1="27.5" x2="18.5" y2="27.5" stroke="#848484" stroke-width="3" stroke-linecap="round"/>
<line x1="21.5" y1="30.5" x2="38.5" y2="30.5" stroke="#848484" stroke-width="3" stroke-linecap="round"/>
<line x1="41.5" y1="20.5" x2="58.5" y2="20.5" stroke="#848484" stroke-width="3" stroke-linecap="round"/>
<line x1="36.5" y1="25.5" x2="53.5" y2="25.5" stroke="#848484" stroke-width="3" stroke-linecap="round"/>
<line x1="5.5" y1="44.5" x2="22.5" y2="44.5" stroke="#848484" stroke-width="3" stroke-linecap="round"/>
<line x1="24.5" y1="40.5" x2="41.5" y2="40.5" stroke="#848484" stroke-width="3" stroke-linecap="round"/>
<line x1="43.5" y1="45.5" x2="60.5" y2="45.5" stroke="#848484" stroke-width="3" stroke-linecap="round"/>
<line x1="1.5" y1="35.5" x2="63.5" y2="35.5" stroke="#848484" stroke-width="3" stroke-linecap="round"/>
</svg>
