<svg width="88" height="88" viewBox="0 0 88 88" fill="none" xmlns="http://www.w3.org/2000/svg">
<path d="M64.9509 60.3738C62.9868 64.431 60.0771 67.9573 56.4666 70.6561C52.8561 73.3549 48.6504 75.1472 44.2031 75.8825C39.7558 76.6177 35.1969 76.2743 30.9099 74.8811C26.623 73.488 22.7332 71.0858 19.5677 67.8766C16.4022 64.6674 14.0536 60.7451 12.7194 56.4394C11.3852 52.1337 11.1043 47.5706 11.9005 43.1338C12.6966 38.697 14.5465 34.5162 17.2946 30.9431C20.0426 27.37 23.6085 24.5089 27.6922 22.6006" stroke="white" stroke-width="3"/>
<path d="M64.835 60.6748C59.8969 64.3615 53.7007 66.0704 47.3814 65.4668C41.0599 64.8631 35.045 61.985 30.4582 57.3508C25.8712 52.7165 23.0366 46.6532 22.4681 40.2903C21.8998 33.9294 23.634 27.7058 27.3288 22.7597" stroke="white" stroke-width="3"/>
</svg>
