<svg width="57" height="62" viewBox="0 0 57 62" fill="none" xmlns="http://www.w3.org/2000/svg">
<line x1="16.3126" y1="51.8427" x2="13.176" y2="58.1159" stroke="#009EF8" stroke-width="2.25" stroke-linecap="round"/>
<path d="M25.395 35.1429H45.8655C57.7719 35.1429 60.4874 16.0606 38.9202 16.0606C41.9664 10.7731 41.9664 2 26.3697 2" stroke="white" stroke-width="3"/>
<path d="M27.3445 35.1428H9.81757C-0.376671 35.1428 -2.7017 16.0996 15.7642 16.0996C13.156 10.823 12.7227 2 26.3698 2" stroke="white" stroke-width="3"/>
<line x1="14.9317" y1="40.7951" x2="11.7951" y2="47.0683" stroke="#009EF8" stroke-width="2.25" stroke-linecap="round"/>
<line x1="25.9793" y1="42.176" x2="22.8427" y2="48.4493" stroke="#009EF8" stroke-width="2.25" stroke-linecap="round"/>
<line x1="45.3126" y1="40.7951" x2="42.176" y2="47.0683" stroke="#009EF8" stroke-width="2.25" stroke-linecap="round"/>
<line x1="27.3602" y1="51.8427" x2="24.2236" y2="58.1159" stroke="#009EF8" stroke-width="2.25" stroke-linecap="round"/>
<line x1="38.4079" y1="53.2236" x2="35.2713" y2="59.4969" stroke="#009EF8" stroke-width="2.25" stroke-linecap="round"/>
<line x1="35.646" y1="43.557" x2="32.5094" y2="49.8302" stroke="#009EF8" stroke-width="2.25" stroke-linecap="round"/>
</svg>
