<svg width="55" height="62" viewBox="0 0 55 62" fill="none" xmlns="http://www.w3.org/2000/svg">
<path d="M53.6397 33.1994L39.9988 36.85L29.1403 30.5815L39.9988 24.3112L53.6397 27.9652C53.716 27.9872 53.794 27.9957 53.8703 27.9957C54.2603 27.9957 54.6163 27.7363 54.7198 27.3395C54.8452 26.8681 54.5672 26.3849 54.0958 26.2577L42.1623 23.0616L53.5363 16.4929C53.9568 16.2487 54.1009 15.7095 53.8584 15.2873C53.6109 14.8634 53.0717 14.721 52.6512 14.9652L41.2823 21.5322L44.4802 9.60037C44.604 9.129 44.3259 8.64576 43.8562 8.51859C43.3865 8.39481 42.9033 8.67119 42.7744 9.14426L39.1205 22.7801L28.262 29.0504V16.5132L38.2438 6.52798C38.5897 6.18378 38.5897 5.62424 38.2438 5.27834C37.9013 4.93413 37.3401 4.93413 36.9959 5.27834L28.262 14.0157V0.883397C28.2603 0.396766 27.8635 0 27.3769 0C26.8902 0 26.4935 0.396766 26.4935 0.883397V14.0157L17.7595 5.27834C17.4137 4.93413 16.8541 4.93413 16.5099 5.27834C16.1657 5.62424 16.1657 6.18378 16.5099 6.52798L26.4935 16.5132V29.0537L15.6333 22.7835L11.9793 9.14595C11.8505 8.67458 11.3689 8.39651 10.8975 8.52028C10.4262 8.64576 10.1464 9.13069 10.2719 9.60206L13.468 21.5339L2.09749 14.9652C1.67698 14.7227 1.13609 14.8651 0.89193 15.289C0.647767 15.7112 0.793587 16.2521 1.21409 16.4946L12.588 23.0633L0.652854 26.2594C0.184874 26.3849 -0.0965921 26.8698 0.0305763 27.3395C0.135702 27.7346 0.491774 27.9957 0.881757 27.9957C0.958058 27.9957 1.03436 27.9872 1.11066 27.9652L14.7516 24.3112L25.6101 30.5815L14.7533 36.85L1.11236 33.1977C0.646071 33.0774 0.157745 33.352 0.0322718 33.8217C-0.0948967 34.2931 0.184874 34.7763 0.656245 34.9035L12.5914 38.098L1.21748 44.6666C0.795282 44.9125 0.651158 45.45 0.895321 45.8739C1.05979 46.1571 1.35652 46.3164 1.66172 46.3164C1.81093 46.3164 1.96354 46.2808 2.10257 46.1994L13.4765 39.6308L10.277 51.5626C10.1515 52.0339 10.4313 52.5172 10.9026 52.6426C10.9789 52.6647 11.0569 52.6749 11.1332 52.6749C11.5215 52.6749 11.8776 52.4154 11.9844 52.0187L15.6384 38.3828L26.4969 32.1109V44.6514L16.515 54.6383C16.1691 54.9808 16.1691 55.5421 16.515 55.888C16.8592 56.2288 17.4187 56.2288 17.7629 55.888L26.4969 47.1507V60.2846C26.4969 60.7696 26.8919 61.168 27.3803 61.168C27.8669 61.168 28.2637 60.7712 28.2637 60.2846V47.1507L36.9959 55.888C37.1705 56.0609 37.3961 56.144 37.6216 56.144C37.8505 56.144 38.076 56.0558 38.2455 55.888C38.5914 55.5421 38.5914 54.9808 38.2455 54.6383L28.2586 44.6514V32.1143L39.1154 38.3828L42.7693 52.0221C42.8745 52.4154 43.2322 52.6749 43.6205 52.6749C43.6968 52.6749 43.7731 52.6681 43.8511 52.646C44.3225 52.5189 44.6006 52.0356 44.4751 51.5626L41.2738 39.6342L52.6478 46.1994C52.7885 46.2825 52.9394 46.3198 53.0903 46.3198C53.3955 46.3198 53.6906 46.1587 53.8567 45.8773C54.1009 45.4534 53.9568 44.9159 53.5346 44.6683L42.1606 38.1014L54.0941 34.9035C54.5672 34.7797 54.8453 34.2931 54.7181 33.8234C54.596 33.3486 54.1145 33.0723 53.6397 33.1994Z" fill="#00A3FF"/>
</svg>
