<svg width="63" height="63" viewBox="0 0 63 63" fill="none" xmlns="http://www.w3.org/2000/svg">
<path d="M28.875 0V7.875H34.125V0H28.875ZM11.0845 7.37256L7.37256 11.0845L12.9404 16.6523L16.6523 12.9404L11.0845 7.37256ZM51.9155 7.37256L46.3477 12.9404L50.0596 16.6523L55.6274 11.0845L51.9155 7.37256ZM31.5 13.125C21.3829 13.125 13.125 21.3829 13.125 31.5C13.125 41.6171 21.3829 49.875 31.5 49.875C41.6171 49.875 49.875 41.6171 49.875 31.5C49.875 21.3829 41.6171 13.125 31.5 13.125ZM31.5 18.375C38.7798 18.375 44.625 24.2202 44.625 31.5C44.625 38.7798 38.7798 44.625 31.5 44.625C24.2202 44.625 18.375 38.7798 18.375 31.5C18.375 24.2202 24.2202 18.375 31.5 18.375ZM0 28.875V34.125H7.875V28.875H0ZM55.125 28.875V34.125H63V28.875H55.125ZM12.9404 46.3477L7.37256 51.9155L11.0845 55.6274L16.6523 50.0596L12.9404 46.3477ZM50.0596 46.3477L46.3477 50.0596L51.9155 55.6274L55.6274 51.9155L50.0596 46.3477ZM28.875 55.125V63H34.125V55.125H28.875Z" fill="#E9EE00"/>
</svg>
