<svg width="55" height="54" viewBox="0 0 55 54" fill="none" xmlns="http://www.w3.org/2000/svg">
<path d="M53.5 9C53.5 9.57405 53.1449 10.3699 51.921 11.3169C50.7172 12.2483 48.8815 13.1521 46.4789 13.9384C41.69 15.5056 34.9798 16.5 27.5 16.5C20.0202 16.5 13.31 15.5056 8.52112 13.9384C6.11854 13.1521 4.28279 12.2483 3.07902 11.3169C1.85513 10.3699 1.5 9.57405 1.5 9C1.5 8.42595 1.85513 7.63013 3.07902 6.68313C4.28279 5.7517 6.11854 4.84793 8.52112 4.06163C13.31 2.49438 20.0202 1.5 27.5 1.5C34.9798 1.5 41.69 2.49438 46.4789 4.06163C48.8815 4.84793 50.7172 5.7517 51.921 6.68313C53.1449 7.63013 53.5 8.42595 53.5 9Z" stroke="white" stroke-width="3"/>
<path d="M47.5 18C47.5 18.7227 47.1565 19.5451 46.2553 20.4371C45.3486 21.3344 43.96 22.2116 42.1236 22.9803C38.4571 24.5151 33.2877 25.5 27.5 25.5C21.7123 25.5 16.5429 24.5151 12.8764 22.9803C11.04 22.2116 9.65143 21.3344 8.74473 20.4371C7.84351 19.5451 7.5 18.7227 7.5 18C7.5 17.2773 7.84351 16.4549 8.74473 15.5629C9.65143 14.6656 11.04 13.7884 12.8764 13.0197C16.5429 11.4849 21.7123 10.5 27.5 10.5C33.2877 10.5 38.4571 11.4849 42.1236 13.0197C43.96 13.7884 45.3486 14.6656 46.2553 15.5629C47.1565 16.4549 47.5 17.2773 47.5 18Z" stroke="white" stroke-width="3"/>
<path d="M43.5 29C43.5 30.6332 42.1805 32.4912 39.1883 34.03C36.2743 35.5287 32.1442 36.5 27.5 36.5C22.8558 36.5 18.7257 35.5287 15.8117 34.03C12.8195 32.4912 11.5 30.6332 11.5 29C11.5 27.3668 12.8195 25.5088 15.8117 23.97C18.7257 22.4713 22.8558 21.5 27.5 21.5C32.1442 21.5 36.2743 22.4713 39.1883 23.97C42.1805 25.5088 43.5 27.3668 43.5 29Z" stroke="white" stroke-width="3"/>
<path d="M40.5 39C40.5 40.4385 39.466 42.0341 37.1553 43.3545C34.887 44.6506 31.6533 45.5 28 45.5C24.3467 45.5 21.113 44.6506 18.8447 43.3545C16.534 42.0341 15.5 40.4385 15.5 39C15.5 37.5615 16.534 35.9659 18.8447 34.6455C21.113 33.3494 24.3467 32.5 28 32.5C31.6533 32.5 34.887 33.3494 37.1553 34.6455C39.466 35.9659 40.5 37.5615 40.5 39Z" stroke="white" stroke-width="3"/>
<path d="M38.5 47C38.5 48.2098 37.688 49.5508 35.8518 50.6684C34.0422 51.7699 31.4467 52.5 28.5 52.5C25.5533 52.5 22.9577 51.7699 21.1482 50.6684C19.312 49.5508 18.5 48.2098 18.5 47C18.5 45.7902 19.312 44.4492 21.1482 43.3316C22.9577 42.2301 25.5533 41.5 28.5 41.5C31.4467 41.5 34.0422 42.2301 35.8518 43.3316C37.688 44.4492 38.5 45.7902 38.5 47Z" stroke="white" stroke-width="3"/>
</svg>
